<svg xmlns="http://www.w3.org/2000/svg" xmlns:xlink="http://www.w3.org/1999/xlink" width="48" height="48" id="bag">
  <defs>
    <linearGradient xlink:href="#a" id="b" x1="868.253" x2="937.656" y1="521.354" y2="588.736" gradientTransform="translate(-1326.968 211.343)scale(1.53785)" gradientUnits="userSpaceOnUse"></linearGradient>
    <linearGradient id="a">
      <stop offset="0" stop-color="#24f3d2"></stop>
      <stop offset=".394" stop-color="#0674f0"></stop>
      <stop offset=".507" stop-color="#6961b5"></stop>
      <stop offset=".813" stop-color="#f34660"></stop>
      <stop offset="1" stop-color="#ee078d"></stop>
    </linearGradient>
  </defs>
  <g transform="translate(0 -1004.362)">
    <rect width="48" height="48" y="1004.362" fill="url(#b)" rx="10.144" ry="10.144"></rect>
    <path fill="#fff" d="M19.531 1014.362c.326 0 .64.045.938.125-1.983.476-3.469 2.255-3.469 4.375v1.5h-1v-2.5c0-1.946 1.57-3.5 3.531-3.5zm2 1c.17 0 .337.01.5.031.635.632 1 1.496 1 2.469v2.5H18v-1.5c0-1.946 1.57-3.5 3.531-3.5zm2.157.75a3.44 3.44 0 0 1 1.343 2.75v1.5h-1v-2.5a4.45 4.45 0 0 0-.343-1.75zm-13.188 5.25h1.594a1.543 1.543 0 0 0-.094.5c-.002.223-.15.474-.469.625-.32.152-.742.152-1.062 0-.319-.153-.467-.402-.469-.625 0-.071.007-.127.031-.188.022-.053.088-.115.125-.156.045-.045.096-.1.156-.125a.46.46 0 0 1 .188-.03zm3 0H17v1.594c-.585.205-1 .755-1 1.406 0 .823.677 1.5 1.5 1.5s1.5-.677 1.5-1.5c0-.651-.415-1.201-1-1.406v-1.594h7.031v1.594a1.48 1.48 0 0 0-1.031 1.406c0 .823.677 1.5 1.5 1.5s1.5-.677 1.5-1.5c0-.64-.398-1.193-.969-1.406v-1.594H29.5c.286 0 .5.215.5.5v7.5H17.5a.52.52 0 0 0-.5.5v12.5h-3.5a.538.538 0 0 1-.188-.03.507.507 0 0 1-.312-.47v-20c0-.071.007-.127.031-.187a.506.506 0 0 1 .469-.313zm-3.5 2c.013.01.018.025.031.031.608.289 1.33.289 1.938 0 .013-.01.018-.025.031-.031v18.5c0 .172.04.347.094.5H10.5a.488.488 0 0 1-.5-.5V1026.862zm7.5.5c.282 0 .5.218.5.5 0 .282-.218.5-.5.5a.493.493 0 0 1-.5-.5c0-.282.218-.5.5-.5zm8 0c.282 0 .5.218.5.5 0 .282-.218.5-.5.5a.493.493 0 0 1-.5-.5c0-.282.218-.5.5-.5zm-7.5 6.5h20v12H18zm6.5 1c-.823 0-1.5.678-1.5 1.5 0 .641.398 1.193.969 1.406v1.594c0 2.485 2.005 4.5 4.5 4.5s4.531-2.015 4.531-4.5v-1.594c.585-.205 1-.755 1-1.406 0-.822-.677-1.5-1.5-1.5s-1.5.678-1.5 1.5c0 .651.415 1.201 1 1.406v1.594c0 1.946-1.57 3.5-3.531 3.5a3.474 3.474 0 0 1-3.5-3.5v-1.594a1.48 1.48 0 0 0 1.031-1.406c0-.822-.677-1.5-1.5-1.5zm0 1c.282 0 .5.218.5.5 0 .282-.218.5-.5.5a.493.493 0 0 1-.5-.5c0-.282.218-.5.5-.5zm8 0c.282 0 .5.218.5.5 0 .282-.218.5-.5.5a.493.493 0 0 1-.5-.5c0-.282.218-.5.5-.5z" color="#000" font-family="sans-serif" font-weight="400" overflow="visible" style="line-height:normal;text-indent:0;text-align:start;text-decoration-line:none;text-transform:none;block-progression:tb"></path>
  </g>
</svg>
